<svg id="visual" viewBox="0 0 1280 1024" width="1280" height="1024" xmlns="http://www.w3.org/2000/svg" xmlns:xlink="http://www.w3.org/1999/xlink" version="1.1"><path d="M0 62L42.7 58.7C85.3 55.3 170.7 48.7 256 48.7C341.3 48.7 426.7 55.3 512 57C597.3 58.7 682.7 55.3 768 57.2C853.3 59 938.7 66 1024 64.3C1109.3 62.7 1194.7 52.3 1237.3 47.2L1280 42L1280 0L1237.3 0C1194.7 0 1109.3 0 1024 0C938.7 0 853.3 0 768 0C682.7 0 597.3 0 512 0C426.7 0 341.3 0 256 0C170.7 0 85.3 0 42.7 0L0 0Z" fill="#b76aff"></path><path d="M0 124L42.7 122.3C85.3 120.7 170.7 117.3 256 120.7C341.3 124 426.7 134 512 135.7C597.3 137.3 682.7 130.7 768 130.7C853.3 130.7 938.7 137.3 1024 133.8C1109.3 130.3 1194.7 116.7 1237.3 109.8L1280 103L1280 40L1237.3 45.2C1194.7 50.3 1109.3 60.7 1024 62.3C938.7 64 853.3 57 768 55.2C682.7 53.3 597.3 56.7 512 55C426.7 53.3 341.3 46.7 256 46.7C170.7 46.7 85.3 53.3 42.7 56.7L0 60Z" fill="#ae5aff"></path><path d="M0 390L42.7 381.5C85.3 373 170.7 356 256 339C341.3 322 426.7 305 512 310.2C597.3 315.3 682.7 342.7 768 346C853.3 349.3 938.7 328.7 1024 313.2C1109.3 297.7 1194.7 287.3 1237.3 282.2L1280 277L1280 101L1237.3 107.8C1194.7 114.7 1109.3 128.3 1024 131.8C938.7 135.3 853.3 128.7 768 128.7C682.7 128.7 597.3 135.3 512 133.7C426.7 132 341.3 122 256 118.7C170.7 115.3 85.3 118.7 42.7 120.3L0 122Z" fill="#a549ff"></path><path d="M0 482L42.7 468.3C85.3 454.7 170.7 427.3 256 406.8C341.3 386.3 426.7 372.7 512 376.2C597.3 379.7 682.7 400.3 768 407.2C853.3 414 938.7 407 1024 398.5C1109.3 390 1194.7 380 1237.3 375L1280 370L1280 275L1237.3 280.2C1194.7 285.3 1109.3 295.7 1024 311.2C938.7 326.7 853.3 347.3 768 344C682.7 340.7 597.3 313.3 512 308.2C426.7 303 341.3 320 256 337C170.7 354 85.3 371 42.7 379.5L0 388Z" fill="#9b36ff"></path><path d="M0 533L42.7 517.7C85.3 502.3 170.7 471.7 256 451.3C341.3 431 426.7 421 512 427.8C597.3 434.7 682.7 458.3 768 463.3C853.3 468.3 938.7 454.7 1024 442.8C1109.3 431 1194.7 421 1237.3 416L1280 411L1280 368L1237.3 373C1194.7 378 1109.3 388 1024 396.5C938.7 405 853.3 412 768 405.2C682.7 398.3 597.3 377.7 512 374.2C426.7 370.7 341.3 384.3 256 404.8C170.7 425.3 85.3 452.7 42.7 466.3L0 480Z" fill="#911bff"></path><path d="M0 564L42.7 552.2C85.3 540.3 170.7 516.7 256 499.7C341.3 482.7 426.7 472.3 512 479C597.3 485.7 682.7 509.3 768 511C853.3 512.7 938.7 492.3 1024 478.8C1109.3 465.3 1194.7 458.7 1237.3 455.3L1280 452L1280 409L1237.3 414C1194.7 419 1109.3 429 1024 440.8C938.7 452.7 853.3 466.3 768 461.3C682.7 456.3 597.3 432.7 512 425.8C426.7 419 341.3 429 256 449.3C170.7 469.7 85.3 500.3 42.7 515.7L0 531Z" fill="#8700f7"></path><path d="M0 646L42.7 630.7C85.3 615.3 170.7 584.7 256 565.8C341.3 547 426.7 540 512 553.7C597.3 567.3 682.7 601.7 768 606.8C853.3 612 938.7 588 1024 572.7C1109.3 557.3 1194.7 550.7 1237.3 547.3L1280 544L1280 450L1237.3 453.3C1194.7 456.7 1109.3 463.3 1024 476.8C938.7 490.3 853.3 510.7 768 509C682.7 507.3 597.3 483.7 512 477C426.7 470.3 341.3 480.7 256 497.7C170.7 514.7 85.3 538.3 42.7 550.2L0 562Z" fill="#7f00e7"></path><path d="M0 830L42.7 828.3C85.3 826.7 170.7 823.3 256 813.2C341.3 803 426.7 786 512 782.7C597.3 779.3 682.7 789.7 768 791.3C853.3 793 938.7 786 1024 789.3C1109.3 792.7 1194.7 806.3 1237.3 813.2L1280 820L1280 542L1237.3 545.3C1194.7 548.7 1109.3 555.3 1024 570.7C938.7 586 853.3 610 768 604.8C682.7 599.7 597.3 565.3 512 551.7C426.7 538 341.3 545 256 563.8C170.7 582.7 85.3 613.3 42.7 628.7L0 644Z" fill="#7700d8"></path><path d="M0 933L42.7 936.3C85.3 939.7 170.7 946.3 256 941.2C341.3 936 426.7 919 512 919C597.3 919 682.7 936 768 937.7C853.3 939.3 938.7 925.7 1024 925.7C1109.3 925.7 1194.7 939.3 1237.3 946.2L1280 953L1280 818L1237.3 811.2C1194.7 804.3 1109.3 790.7 1024 787.3C938.7 784 853.3 791 768 789.3C682.7 787.7 597.3 777.3 512 780.7C426.7 784 341.3 801 256 811.2C170.7 821.3 85.3 824.7 42.7 826.3L0 828Z" fill="#6f00c9"></path><path d="M0 1025L42.7 1025C85.3 1025 170.7 1025 256 1025C341.3 1025 426.7 1025 512 1025C597.3 1025 682.7 1025 768 1025C853.3 1025 938.7 1025 1024 1025C1109.3 1025 1194.7 1025 1237.3 1025L1280 1025L1280 951L1237.3 944.2C1194.7 937.3 1109.3 923.7 1024 923.7C938.7 923.7 853.3 937.3 768 935.7C682.7 934 597.3 917 512 917C426.7 917 341.3 934 256 939.2C170.7 944.3 85.3 937.7 42.7 934.3L0 931Z" fill="#6700ba"></path></svg>